<?xml version="1.0" encoding="utf-8"?>
<!-- Generator: Adobe Illustrator 16.0.0, SVG Export Plug-In . SVG Version: 6.00 Build 0)  -->
<!DOCTYPE svg PUBLIC "-//W3C//DTD SVG 1.1//EN" "http://www.w3.org/Graphics/SVG/1.1/DTD/svg11.dtd">
<svg version="1.1" xmlns="http://www.w3.org/2000/svg" xmlns:xlink="http://www.w3.org/1999/xlink" x="0px" y="0px" width="205px"
	 height="205px" viewBox="0 0 205 205" enable-background="new 0 0 205 205" xml:space="preserve">
<g id="Layer_2">
</g>
<g id="Layer_1">
	<text transform="matrix(1 0 0 1 14.2559 157.1113)" fill="#EF5231" font-family="'Kefa-Regular'" font-size="35">The Digital</text>
	<text transform="matrix(1 0 0 1 14.2559 183.7812)" fill="#EF5231" font-family="'Kefa-Regular'" font-size="35">Orientalist</text>
	<!-- <text transform="matrix(1 0 0 1 14.2559 183.7812)"><tspan x="0" y="0" fill="#EF5231" font-family="'Kefa-Regular'" font-size="35">Orientalist</tspan><tspan x="39.881" y="0" fill="#EF5231" font-family="'Kefa-Regular'" font-size="35">ien</tspan><tspan x="90.011" y="0" fill="#EF5231" font-family="'Kefa-Regular'" font-size="35">t</tspan><tspan x="104.312" y="0" fill="#EF5231" font-family="'Kefa-Regular'" font-size="35">a</tspan><tspan x="122.731" y="0" fill="#EF5231" font-family="'Kefa-Regular'" font-size="35">l</tspan><tspan x="133.648" y="0" fill="#EF5231" font-family="'Kefa-Regular'" font-size="35">is</tspan><tspan x="161.035" y="0" fill="#EF5231" font-family="'Kefa-Regular'" font-size="35">t</tspan></text>
	<text transform="matrix(1 0 0 1 297.6406 420.9453)" font-family="'MyriadPro-Regular'" font-size="12">EF5132</text>
	<text transform="matrix(1 0 0 1 297.6406 420.9453)" font-family="'MyriadPro-Regular'" font-size="12">EF5132</text>
	<text transform="matrix(1 0 0 1 297.6406 420.9453)" font-family="'MyriadPro-Regular'" font-size="12">EF5132</text>
	<text transform="matrix(1 0 0 1 297.6406 420.9453)" font-family="'MyriadPro-Regular'" font-size="12">EF5132</text> -->
	<g>
		<defs>
			<rect id="SVGID_1_" x="0.105" y="0.338" width="204.647" height="204.662"/>
		</defs>
		<clipPath id="SVGID_2_">
			<use xlink:href="#SVGID_1_"  overflow="visible"/>
		</clipPath>
		<path clip-path="url(#SVGID_2_)" fill="none" stroke="#EF5231" stroke-width="2" stroke-miterlimit="10" d="M-5.241,121.493
			c53.072-19.669,183.145-15.898,212.241,0"/>
		<path clip-path="url(#SVGID_2_)" stroke="#EF5231" fill="#EF5231" d="M134.295,96.243c-0.619-4.236-1.37-7.382-2.246-9.449c-0.876-2.068-2.58-4.701-5.112-7.9
			l6.197-6.196l-3.951-3.873l-5.963,6.119c-3.617-2.58-6.482-4.284-8.599-5.112c-2.114-0.828-5.087-1.472-8.905-1.936l-0.078-8.752
			l-5.422-0.078l-0.154,8.83c-4.237,0.721-7.37,1.507-9.414,2.365c-2.037,0.846-4.659,2.437-7.858,4.76l-6.351-6.196l-3.873,3.873
			l6.351,6.428c-2.377,3.152-3.986,5.732-4.844,7.745c-0.846,2.014-1.608,5.136-2.282,9.372l-8.674-0.077l0.077,5.576l8.675,0.077
			c0.403,2.823,0.861,5.032,1.353,6.868c0.48,0.116,0.971,0.203,1.373,0.413c0.472-0.107,0.887-0.291,1.433-0.291
			c0.445,0,0.771,0.165,1.166,0.236c0.71-0.05,1.425-0.08,2.127-0.016c-1.353-3.065-2.108-6.352-2.108-9.921
			c0-7.072,2.52-13.155,7.549-18.243c5.04-5.082,11.04-7.626,18.01-7.626c7.334,0,13.542,2.532,18.63,7.59
			c5.083,5.058,7.627,11.231,7.627,18.511c0,2.831-0.532,5.464-1.371,7.98c-0.426,0.841,4.638,0.535,5.699,0.475
			c0.408-1.723,0.747-3.661,0.938-6.054l8.441-0.155l0.078-5.344H134.295z"/>
		<polygon clip-path="url(#SVGID_2_)" stroke="#EF5231" fill="#EF5231" points="77.408,45.389 89.613,75.42 94.759,73.219 82.375,43.344 		"/>
		<polygon clip-path="url(#SVGID_2_)" stroke="#EF5231" fill="#EF5231" points="123.867,43.454 111.188,73.287 116.377,75.383 128.82,45.533 		"/>
		<polygon clip-path="url(#SVGID_2_)" stroke="#EF5231" fill="#EF5231" points="46.682,77.921 76.173,91.378 78.404,86.245 48.89,73.024 		"/>
		<polygon clip-path="url(#SVGID_2_)" stroke="#EF5231" fill="#EF5231" points="156.982,72.901 127.383,86.116 129.757,91.184 159.195,77.796 		"/>
	</g>
</g>
</svg>
